<svg width="512" height="389" viewBox="0 0 512 389" fill="none" xmlns="http://www.w3.org/2000/svg">
<path d="M462 0H50C22.43 0 0 22.43 0 50V338.062C0 365.632 22.43 388.062 50 388.062H462C489.57 388.062 512 365.632 512 338.062V50C512 22.429 489.57 0 462 0V0ZM492 338.062C492 354.604 478.542 368.062 462 368.062H50C33.458 368.062 20 354.604 20 338.062V50C20 33.458 33.458 20 50 20H462C478.542 20 492 33.458 492 50V338.062Z" fill="white"/>
<path d="M458 44H301.064C295.541 44 291.064 48.478 291.064 54C291.064 59.522 295.541 64 301.064 64H448V92H64V64H211.064C216.587 64 221.064 59.522 221.064 54C221.064 48.478 216.587 44 211.064 44H54C48.477 44 44 48.478 44 54V102C44 107.522 48.477 112 54 112H458C463.522 112 468 107.522 468 102V54C468 48.477 463.522 44 458 44Z" fill="white"/>
<path d="M214 148.062H54C48.477 148.062 44 152.539 44 158.062V334.062C44 339.584 48.477 344.062 54 344.062H214C219.523 344.062 224 339.584 224 334.062V158.062C224 152.54 219.523 148.062 214 148.062ZM204 168.062V302.01C195.703 287.142 181.83 275.802 165.224 270.831C169.498 264.548 172 256.967 172 248.812V247.777C176.395 246.724 179.667 242.78 179.667 238.062C179.667 233.326 176.37 229.368 171.949 228.334C171.983 227.998 172 227.657 172 227.312C172 205.669 154.393 188.062 132.75 188.062C111.107 188.062 93.5 205.669 93.5 227.312C93.5 227.657 93.518 227.998 93.551 228.334C89.13 229.368 85.833 233.326 85.833 238.062C85.833 242.78 89.104 246.724 93.499 247.777V248.812C93.499 256.967 96.001 264.548 100.275 270.831C85.238 275.331 72.444 285.056 63.999 297.893V168.062H204ZM113.462 228.062C113.48 227.813 113.5 227.565 113.5 227.312C113.5 216.698 122.136 208.062 132.75 208.062C143.364 208.062 152 216.698 152 227.312C152 227.565 152.019 227.813 152.038 228.062H113.462ZM113.5 248.062H152V248.812C152 259.426 143.364 268.062 132.75 268.062C122.136 268.062 113.5 259.426 113.5 248.812V248.062ZM74.261 324.062C78.84 303.491 97.236 288.062 119.166 288.062H122.75V294C122.75 299.522 127.227 304 132.75 304C138.273 304 142.75 299.522 142.75 294V288.062H146.333C168.264 288.062 186.66 303.491 191.238 324.062H74.261Z" fill="white"/>
<path d="M315.5 148.062H262C256.477 148.062 252 152.539 252 158.062C252 163.584 256.477 168.062 262 168.062H315.5C321.022 168.062 325.5 163.584 325.5 158.062C325.5 152.54 321.022 148.062 315.5 148.062Z" fill="white"/>
<path d="M315.5 202.062H262C256.477 202.062 252 206.54 252 212.062C252 217.584 256.477 222.062 262 222.062H315.5C321.022 222.062 325.5 217.584 325.5 212.062C325.5 206.54 321.022 202.062 315.5 202.062Z" fill="white"/>
<path d="M315.5 256.062H262C256.477 256.062 252 260.54 252 266.062C252 271.584 256.477 276.062 262 276.062H315.5C321.022 276.062 325.5 271.584 325.5 266.062C325.5 260.54 321.022 256.062 315.5 256.062Z" fill="white"/>
<path d="M315.5 310.062H262C256.477 310.062 252 314.54 252 320.062C252 325.584 256.477 330.062 262 330.062H315.5C321.022 330.062 325.5 325.584 325.5 320.062C325.5 314.54 321.022 310.062 315.5 310.062Z" fill="white"/>
<path d="M458 148.062H359C353.478 148.062 349 152.539 349 158.062C349 163.584 353.478 168.062 359 168.062H458C463.522 168.062 468 163.584 468 158.062C468 152.54 463.522 148.062 458 148.062Z" fill="white"/>
<path d="M458 202.062H359C353.478 202.062 349 206.54 349 212.062C349 217.584 353.478 222.062 359 222.062H458C463.522 222.062 468 217.584 468 212.062C468 206.54 463.522 202.062 458 202.062Z" fill="white"/>
<path d="M458 256.062H359C353.478 256.062 349 260.54 349 266.062C349 271.584 353.478 276.062 359 276.062H458C463.522 276.062 468 271.584 468 266.062C468 260.54 463.522 256.062 458 256.062Z" fill="white"/>
<path d="M458 310.062H359C353.478 310.062 349 314.54 349 320.062C349 325.584 353.478 330.062 359 330.062H458C463.522 330.062 468 325.584 468 320.062C468 314.54 463.522 310.062 458 310.062Z" fill="white"/>
<path d="M256.06 64.061C258.689 64.061 261.269 63 263.13 61.13C265 59.271 266.06 56.691 266.06 54.061C266.06 51.43 265 48.85 263.13 46.991C261.27 45.131 258.69 44.061 256.06 44.061C253.43 44.061 250.85 45.13 248.99 46.991C247.13 48.85 246.06 51.43 246.06 54.061C246.06 56.691 247.13 59.271 248.99 61.13C250.86 63.001 253.43 64.061 256.06 64.061Z" fill="white"/>
</svg>
