<svg width="512" height="404" viewBox="0 0 512 404" fill="none" xmlns="http://www.w3.org/2000/svg">
<path d="M462 0H50C22.43 0 0 22.43 0 50V354C0 381.57 22.43 404 50 404H462C489.57 404 512 381.57 512 354V50C512 22.43 489.57 0 462 0ZM492 354C492 370.542 478.542 384 462 384H50C33.458 384 20 370.542 20 354V50C20 33.458 33.458 20 50 20H462C478.542 20 492 33.458 492 50V354Z" fill="white"/>
<path d="M268 114V290C268 295.522 272.478 300 278 300H410C415.522 300 420 295.522 420 290V114C420 108.477 415.522 104 410 104H278C272.478 104 268 108.477 268 114ZM288 212H312V236H288V212ZM332 212H356V236H332V212ZM376 212H400V236H376V212ZM400 192H376V168H400V192ZM356 192H332V168H356V192ZM312 192H288V168H312V192ZM288 256H312V280H288V256ZM332 256H356V280H332V256ZM400 280H376V256H400V280ZM400 148H376V124H400V148ZM356 148H332V124H356V148ZM288 124H312V148H288V124Z" fill="white"/>
<path d="M174 132C135.402 132 104 163.402 104 202C104 240.598 135.402 272 174 272C212.598 272 244 240.598 244 202C244 163.402 212.598 132 174 132ZM222.994 192H202.28C199.262 183.491 192.509 176.738 184 173.72V153.006C203.562 156.993 219.007 172.438 222.994 192ZM174 212C168.486 212 164 207.514 164 202C164 196.486 168.486 192 174 192C179.514 192 184 196.486 184 202C184 207.514 179.514 212 174 212ZM164 153.006V173.72C155.491 176.738 148.738 183.491 145.72 192H125.006C128.993 172.438 144.438 156.993 164 153.006ZM125.006 212H145.72C148.738 220.509 155.491 227.262 164 230.28V250.994C144.438 247.007 128.993 231.562 125.006 212ZM184 250.994V230.28C192.509 227.262 199.262 220.51 202.28 212H222.994C219.007 231.562 203.562 247.007 184 250.994Z" fill="white"/>
<path d="M454 48H307C301.478 48 297 52.478 297 58C297 63.522 301.478 68 307 68H444V334.75H80V310.75H80.334C97.979 310.75 112.334 296.395 112.334 278.75C112.334 261.105 97.979 246.75 80.334 246.75H80V156H80.334C97.979 156 112.334 141.645 112.334 124C112.334 106.355 97.979 92 80.334 92H80V68H216.999C222.522 68 226.999 63.522 226.999 58C226.999 52.478 222.522 48 216.999 48H70C64.477 48 60 52.478 60 58V94.343C48.285 99.101 40 110.598 40 124C40 137.402 48.285 148.899 60 153.657V249.094C48.285 253.852 40 265.349 40 278.751C40 292.153 48.285 303.65 60 308.408V344.751C60 350.273 64.477 354.751 70 354.751H454C459.522 354.751 464 350.273 464 344.751V58C464 52.478 459.522 48 454 48V48ZM72 112H80.334C86.951 112 92.334 117.383 92.334 124C92.334 130.617 86.951 136 80.334 136H72C65.383 136 60 130.617 60 124C60 117.383 65.383 112 72 112ZM72 266.75H80.334C86.951 266.75 92.334 272.133 92.334 278.75C92.334 285.367 86.951 290.75 80.334 290.75H72C65.383 290.75 60 285.367 60 278.75C60 272.133 65.383 266.75 72 266.75Z" fill="white"/>
<path d="M262 68C264.63 68 267.21 66.93 269.069 65.069C270.93 63.21 272 60.63 272 58C272 55.37 270.93 52.79 269.069 50.93C267.21 49.07 264.63 48 262 48C259.37 48 256.79 49.069 254.93 50.93C253.07 52.79 252 55.37 252 58C252 60.63 253.07 63.21 254.93 65.069C256.79 66.93 259.37 68 262 68Z" fill="white"/>
</svg>
