<svg width="512" height="472" viewBox="0 0 512 472" fill="none" xmlns="http://www.w3.org/2000/svg">
<path d="M502 0H208.372C205.258 0 202.322 1.45 200.43 3.923L173.018 39.747C163.486 32.934 157.714 21.908 157.714 10C157.714 4.478 153.237 0 147.714 0C142.191 0 137.714 4.478 137.714 10C137.714 21.882 141.431 33.2 148.024 42.568H138.427C116.944 42.568 97.039 53.903 86.047 72.264C68.178 88.072 52.632 106.271 39.836 126.393C36.872 131.053 38.248 137.234 42.908 140.198C47.568 143.161 53.749 141.787 56.712 137.126C66.993 120.96 79.194 106.137 93.066 92.948L155.5 164.468C129.518 190.639 114.794 226.124 114.794 263.299C114.794 289.433 93.532 310.695 67.398 310.695C41.264 310.695 20 289.433 20 263.299C20 247.736 21.556 232.116 24.623 216.876C25.713 211.461 22.208 206.188 16.793 205.099C11.38 204.007 6.106 207.515 5.017 212.929C1.688 229.466 0 246.413 0 263.299C0 300.461 30.234 330.695 67.396 330.695C104.558 330.695 134.792 300.462 134.792 263.299C134.792 236.462 143.746 210.659 159.869 189.779C163.351 215.303 185.281 235.039 211.746 235.039C240.624 235.039 264.119 211.545 264.119 182.667V159.185H333.16C351.597 159.185 366.597 144.185 366.597 125.748V73.568H502C507.522 73.568 512 69.09 512 63.568V10C512 4.478 507.522 0 502 0V0ZM242.493 79.593C242.493 72.316 248.413 66.396 255.691 66.396H346.597V92.791H255.69C248.413 92.79 242.493 86.87 242.493 79.593V79.593ZM346.449 20V46.396H255.69C248.413 46.396 242.492 40.475 242.492 33.198C242.492 25.921 248.412 20.001 255.69 20.001H346.449V20ZM106.468 77.891C114.183 68.315 125.898 62.568 138.426 62.568H175.798C178.912 62.568 181.848 61.118 183.74 58.645L213.311 20H225.236C223.475 24.048 222.493 28.509 222.493 33.197C222.493 42.218 226.115 50.406 231.974 56.395C226.114 62.384 222.493 70.572 222.493 79.592C222.493 88.612 226.115 96.8 231.974 102.789C226.114 108.778 222.493 116.966 222.493 125.987C222.493 130.675 223.475 135.136 225.236 139.184H186.002C183.42 139.184 180.938 140.183 179.075 141.971L170.009 150.678L106.468 77.891ZM211.746 215.039C193.895 215.039 179.373 200.517 179.373 182.667V177.822C185.971 186.634 196.492 192.347 208.323 192.347C213.846 192.347 218.323 187.869 218.323 182.347C218.323 176.824 213.846 172.347 208.323 172.347C200.441 172.347 193.87 166.665 192.464 159.185H244.118V182.667C244.119 200.517 229.596 215.039 211.746 215.039ZM333.16 139.186H255.69C248.413 139.186 242.492 133.266 242.492 125.989C242.492 118.712 248.412 112.791 255.69 112.791H346.596V125.75C346.597 133.158 340.569 139.186 333.16 139.186ZM492 53.569H366.597V20H492V53.569Z" fill="white"/>
<path d="M182.18 106.25C184.81 106.25 187.39 105.189 189.25 103.319C191.11 101.46 192.18 98.889 192.18 96.25C192.18 93.62 191.11 91.05 189.25 89.18C187.39 87.32 184.81 86.25 182.18 86.25C179.54 86.25 176.97 87.319 175.1 89.18C173.24 91.05 172.18 93.62 172.18 96.25C172.18 98.89 173.24 101.46 175.1 103.319C176.97 105.189 179.54 106.25 182.18 106.25Z" fill="white"/>
<path d="M300.103 309.31C284.021 300.327 263.69 303.152 250.664 316.178L233.016 333.825C229.381 332.298 225.028 333.009 222.068 335.969L144.196 413.841C142.321 415.717 141.267 418.26 141.267 420.912C141.267 423.564 142.321 426.107 144.196 427.983L185.284 469.071C187.237 471.023 189.796 472 192.355 472C194.914 472 197.474 471.023 199.426 469.071L277.298 391.199C279.173 389.323 280.227 386.78 280.227 384.128C280.227 382.783 279.954 381.467 279.442 380.251L297.089 362.603C310.114 349.578 312.939 329.248 303.958 313.165C303.056 311.547 301.721 310.213 300.103 309.31V309.31ZM192.355 447.857L165.409 420.912L229.139 357.182L256.085 384.128L192.355 447.857ZM282.947 348.461L265.871 365.537L247.73 347.395L264.807 330.319C270.846 324.279 279.924 322.483 287.733 325.534C290.782 333.341 288.987 342.421 282.947 348.461Z" fill="white"/>
<path d="M402.439 238.04C399.478 235.081 395.126 234.37 391.491 235.896L373.843 218.248C360.817 205.223 340.486 202.398 324.404 211.379C322.786 212.282 321.452 213.617 320.549 215.234C311.567 231.317 314.391 251.647 327.416 264.674L345.064 282.321C343.536 285.956 344.248 290.309 347.208 293.269L425.079 371.141C426.955 373.016 429.498 374.07 432.15 374.07C434.802 374.07 437.345 373.016 439.221 371.141L480.31 330.052C482.185 328.176 483.239 325.633 483.239 322.981C483.239 320.329 482.185 317.786 480.31 315.91L402.439 238.04ZM336.773 227.605C344.581 224.557 353.661 226.349 359.7 232.39L376.776 249.466L358.634 267.608L341.558 250.533C335.519 244.492 333.724 235.411 336.773 227.605ZM432.15 349.929L368.422 286.199L395.367 259.254L459.097 322.982L432.15 349.929Z" fill="white"/>
<path d="M27.72 181.79C30.35 181.79 32.93 180.72 34.79 178.859C36.65 177 37.72 174.42 37.72 171.79C37.72 169.16 36.65 166.58 34.79 164.72C32.93 162.86 30.35 161.79 27.72 161.79C25.09 161.79 22.51 162.859 20.65 164.72C18.79 166.58 17.72 169.161 17.72 171.79C17.72 174.42 18.79 177 20.65 178.859C22.51 180.72 25.08 181.79 27.72 181.79Z" fill="white"/>
</svg>
