<svg width="512" height="512" viewBox="0 0 512 512" fill="none" xmlns="http://www.w3.org/2000/svg">
<path d="M512 256C512 239.999 500.195 226.705 484.838 224.366C470.827 122.219 389.78 41.173 287.634 27.162C285.295 11.804 272 0 256 0C240.001 0 226.706 11.803 224.366 27.159C188.744 32.06 154.506 45.33 124.86 65.809C120.316 68.948 119.176 75.177 122.316 79.721C124.256 82.531 127.378 84.038 130.552 84.038C132.512 84.038 134.492 83.463 136.227 82.265C162.44 64.157 192.586 52.239 224 47.438V71.743C186.3 78.286 150.988 96.554 123.771 123.772C96.553 150.988 78.285 186.301 71.742 224H47.417C51.724 195.499 61.686 168.643 77.123 144.032C80.059 139.354 78.644 133.182 73.967 130.247C69.286 127.312 63.116 128.727 60.182 133.404C42.928 160.908 31.612 192.19 27.175 224.364C11.811 226.698 0 239.995 0 256C0 272.001 11.805 285.295 27.162 287.634C41.173 389.78 122.219 470.827 224.366 484.838C226.705 500.196 240 512 256 512C272 512 285.295 500.196 287.634 484.838C389.78 470.827 470.827 389.78 484.838 287.634C500.195 285.295 512 272.001 512 256V256ZM464.578 224H440.258C433.715 186.301 415.447 150.988 388.23 123.771C361.012 96.554 325.7 78.286 288 71.743V47.423C378.809 61.254 450.747 133.19 464.578 224ZM256 20C262.617 20 268 25.383 268 32V84C268 90.617 262.617 96 256 96C249.383 96 244 90.617 244 84V32C244 25.383 249.383 20 256 20V20ZM224.982 91.872C228.499 105.723 241.071 116 256 116C270.929 116 283.5 105.723 287.018 91.872C354.635 104.515 407.486 157.365 420.129 224.982C406.278 228.499 396 241.071 396 256C396 270.929 406.278 283.501 420.128 287.018C407.485 354.635 354.635 407.485 287.017 420.128C283.5 406.277 270.929 396 256 396C241.071 396 228.499 406.277 224.982 420.128C157.365 407.486 104.514 354.635 91.871 287.018C105.722 283.501 116 270.929 116 256C116 241.071 105.722 228.499 91.872 224.982C104.514 157.365 157.365 104.515 224.982 91.872V91.872ZM20 256C20 249.383 25.383 244 32 244H84C90.617 244 96 249.383 96 256C96 262.617 90.617 268 84 268H32C25.383 268 20 262.617 20 256ZM47.422 288H71.742C78.285 325.7 96.553 361.012 123.77 388.229C150.987 415.446 186.3 433.714 223.999 440.257V464.577C133.19 450.747 61.253 378.81 47.422 288ZM268 480C268 486.617 262.617 492 256 492C249.383 492 244 486.617 244 480V428C244 421.383 249.383 416 256 416C262.617 416 268 421.383 268 428V480ZM288 464.577V440.257C325.7 433.714 361.012 415.446 388.229 388.228C415.446 361.011 433.714 325.699 440.257 288H464.577C450.747 378.81 378.81 450.746 288 464.577ZM480 268H475.886C475.882 268 428 268 428 268C421.383 268 416 262.617 416 256C416 249.383 421.383 244 428 244H480C486.617 244 492 249.383 492 256C492 262.617 486.617 268 480 268Z" fill="white"/>
<path d="M185.235 313.442C206.406 326.758 230.877 333.796 256 333.796C281.123 333.796 305.594 326.757 326.765 313.442C347.35 300.494 364.006 282.187 374.931 260.499C376.357 257.669 376.357 254.331 374.931 251.501C364.006 229.813 347.35 211.506 326.765 198.558C305.594 185.242 281.123 178.203 256 178.203C230.877 178.203 206.406 185.242 185.235 198.558C164.65 211.506 147.994 229.813 137.069 251.501C135.643 254.331 135.643 257.669 137.069 260.499C147.994 282.186 164.65 300.494 185.235 313.442ZM256 199C287.43 199 313 224.57 313 256C313 287.43 287.43 313 256 313C224.57 313 199 287.43 199 256C199 224.57 224.57 199 256 199ZM354.678 256C346.998 269.712 336.769 281.392 324.758 290.596C330.017 280.186 333 268.438 333 256C333 243.562 330.017 231.814 324.758 221.404C336.769 230.608 346.998 242.288 354.678 256ZM187.242 221.404C181.983 231.814 179 243.562 179 256C179 268.438 181.983 280.186 187.242 290.596C175.231 281.392 165.002 269.711 157.322 256C165.002 242.288 175.231 230.608 187.242 221.404V221.404Z" fill="white"/>
<path d="M256 290C274.748 290 290 274.748 290 256C290 237.252 274.748 222 256 222C237.252 222 222 237.252 222 256C222 274.748 237.252 290 256 290ZM256 242C263.72 242 270 248.28 270 256C270 263.72 263.72 270 256 270C248.28 270 242 263.72 242 256C242 248.28 248.28 242 256 242Z" fill="white"/>
<path d="M96.3101 113.23C98.9401 113.23 101.52 112.16 103.38 110.3C105.24 108.44 106.31 105.86 106.31 103.23C106.31 100.6 105.241 98.02 103.38 96.16C101.52 94.3 98.9401 93.23 96.3101 93.23C93.6801 93.23 91.1001 94.3 89.2411 96.16C87.3811 98.02 86.3101 100.6 86.3101 103.23C86.3101 105.86 87.3801 108.44 89.2411 110.3C91.1001 112.16 93.6801 113.23 96.3101 113.23V113.23Z" fill="white"/>
</svg>
