<svg width="404" height="512" viewBox="0 0 404 512" fill="none" xmlns="http://www.w3.org/2000/svg">
<path d="M176.902 394.793C172.996 390.888 166.664 390.888 162.759 394.793C147.603 409.951 130.636 423.031 112.332 433.671C107.557 436.447 105.937 442.568 108.712 447.342C110.568 450.536 113.921 452.318 117.367 452.318C119.072 452.318 120.802 451.881 122.383 450.962C142.181 439.453 160.524 425.313 176.901 408.934C180.808 405.029 180.808 398.698 176.902 394.793V394.793Z" fill="white"/>
<path d="M201.658 363.543C203.295 364.552 205.107 365.033 206.897 365.033C210.252 365.033 213.529 363.345 215.418 360.28C241.033 318.737 254.573 270.678 254.573 221.298C254.573 192.308 230.988 168.724 201.999 168.724C173.01 168.724 149.425 192.308 149.425 221.298C149.425 226.821 153.903 231.298 159.425 231.298C164.947 231.298 169.425 226.821 169.425 221.298C169.425 203.336 184.037 188.724 201.999 188.724C219.961 188.724 234.573 203.337 234.573 221.298C234.573 266.969 222.062 311.399 198.394 349.783C195.497 354.483 196.958 360.644 201.658 363.543V363.543Z" fill="white"/>
<path d="M53.8841 388.717C55.1531 388.717 56.4441 388.474 57.6891 387.961C105.82 368.133 143.05 328.541 159.836 279.336C161.619 274.109 158.827 268.426 153.6 266.643C148.373 264.859 142.691 267.651 140.907 272.879C125.982 316.63 92.8741 351.835 50.0721 369.469C44.9651 371.572 42.5311 377.418 44.6341 382.524C46.2251 386.384 49.9521 388.717 53.8841 388.717V388.717Z" fill="white"/>
<path d="M236.308 388.278C231.845 385.025 225.591 386.005 222.336 390.469C213.491 402.603 203.575 414.186 192.864 424.897C182.753 435.009 171.854 444.421 160.471 452.871C156.036 456.163 155.111 462.427 158.403 466.861C160.366 469.504 163.383 470.901 166.44 470.901C168.511 470.901 170.602 470.259 172.393 468.93C184.559 459.898 196.204 449.842 207.006 439.04C218.447 427.598 229.043 415.22 238.497 402.25C241.751 397.787 240.771 391.531 236.308 388.278V388.278Z" fill="white"/>
<path d="M106.217 282.278C110.069 282.278 113.74 280.039 115.383 276.284C122.993 258.893 126.852 240.393 126.852 221.296C126.852 195.267 140.033 171.454 162.111 157.595C166.789 154.659 168.201 148.487 165.264 143.809C162.327 139.131 156.154 137.72 151.478 140.656C123.535 158.196 106.852 188.342 106.852 221.296C106.852 237.616 103.558 253.419 97.0609 268.266C94.8469 273.326 97.1539 279.222 102.213 281.436C103.518 282.008 104.878 282.278 106.217 282.278V282.278Z" fill="white"/>
<path d="M85.5421 305.521C81.6841 301.573 75.3511 301.498 71.4011 305.359C60.5101 316.003 47.8921 324.322 33.8971 330.086C28.7911 332.19 26.3561 338.034 28.4591 343.141C30.0491 347.002 33.7771 349.335 37.7091 349.335C38.9781 349.335 40.2681 349.092 41.5141 348.579C57.8901 341.834 72.6481 332.105 85.3791 319.662C89.3301 315.802 89.4021 309.471 85.5421 305.521Z" fill="white"/>
<path d="M176.384 342.243C179.384 337.607 178.058 331.415 173.422 328.415C168.782 325.413 162.594 326.741 159.593 331.377C139.012 363.178 110.072 388.526 75.9021 404.68C70.9091 407.04 68.7741 413.001 71.1341 417.995C72.8421 421.607 76.4351 423.723 80.1821 423.723C81.6141 423.723 83.0691 423.414 84.4491 422.761C121.987 405.015 153.777 377.172 176.384 342.243V342.243Z" fill="white"/>
<path d="M202 211.297C196.477 211.297 192 215.774 192 221.297C192 245.419 187.82 269.01 179.576 291.413C177.669 296.596 180.324 302.344 185.508 304.251C186.647 304.67 187.813 304.869 188.96 304.869C193.031 304.869 196.857 302.363 198.346 298.32C207.406 273.698 212 247.784 212 221.297C212 215.774 207.522 211.297 202 211.297V211.297Z" fill="white"/>
<path d="M271.971 411.443C267.483 408.224 261.236 409.255 258.017 413.742C247.57 428.311 235.778 442.193 222.964 455.007L222 455.967C218.087 459.864 218.072 466.195 221.969 470.109C223.923 472.072 226.489 473.054 229.056 473.054C231.608 473.054 234.16 472.083 236.112 470.141L237.112 469.144C250.688 455.567 263.191 440.849 274.271 425.397C277.488 420.909 276.459 414.662 271.971 411.443V411.443Z" fill="white"/>
<path d="M64.2771 221.297C64.2771 247.917 49.9211 272.794 26.8101 286.218C22.0341 288.992 20.4121 295.112 23.1851 299.888C25.0411 303.083 28.3951 304.867 31.8421 304.867C33.5461 304.867 35.2751 304.43 36.8551 303.512C66.1061 286.521 84.2771 255.018 84.2771 221.297C84.2771 156.384 137.088 103.574 202 103.574C248.362 103.574 290.562 130.926 309.51 173.257C311.766 178.298 317.682 180.554 322.722 178.299C327.763 176.043 330.021 170.127 327.764 165.086C305.601 115.569 256.235 83.574 202 83.574C126.06 83.574 64.2771 145.356 64.2771 221.297V221.297Z" fill="white"/>
<path d="M306.562 99.7951C341.982 130.307 362.296 174.592 362.296 221.297C362.296 226.82 366.774 231.297 372.296 231.297C377.818 231.297 382.296 226.82 382.296 221.297C382.296 168.765 359.449 118.957 319.614 84.6421C315.429 81.0371 309.116 81.5091 305.511 85.6921C301.908 89.8761 302.378 96.1901 306.562 99.7951V99.7951Z" fill="white"/>
<path d="M76.5419 105.707C78.5039 107.74 81.1189 108.762 83.7369 108.762C86.2369 108.762 88.7409 107.83 90.6809 105.957C120.713 76.966 160.246 61 202 61C211.682 61 221.377 61.869 230.818 63.582C236.245 64.562 241.457 60.962 242.443 55.528C243.428 50.094 239.823 44.889 234.388 43.903C223.772 41.977 212.875 41 202 41C155.037 41 110.57 58.958 76.7909 91.567C72.8169 95.403 72.7059 101.733 76.5419 105.707V105.707Z" fill="white"/>
<path d="M31.7031 231.297C37.2251 231.297 41.7031 226.82 41.7031 221.297C41.7031 189.631 50.9201 159.013 68.3561 132.751C71.4111 128.15 70.1581 121.944 65.5561 118.889C60.9571 115.835 54.7501 117.088 51.6941 121.689C32.0741 151.24 21.7031 185.684 21.7031 221.297C21.7031 226.82 26.1811 231.297 31.7031 231.297V231.297Z" fill="white"/>
<path d="M372.297 253.871C354.335 253.871 339.723 239.258 339.723 221.297C339.723 215.774 335.245 211.297 329.723 211.297C324.201 211.297 319.723 215.774 319.723 221.297C319.723 250.287 343.308 273.871 372.297 273.871C377.819 273.871 382.297 269.394 382.297 263.871C382.297 258.348 377.819 253.871 372.297 253.871V253.871Z" fill="white"/>
<path d="M372.297 296.445C330.861 296.445 297.149 262.734 297.149 221.297C297.149 168.832 254.465 126.148 202.001 126.148C196.478 126.148 192.001 130.625 192.001 136.148C192.001 141.671 196.478 146.148 202.001 146.148C243.437 146.148 277.149 179.859 277.149 221.296C277.149 273.761 319.833 316.444 372.297 316.444C377.819 316.444 382.297 311.967 382.297 306.444C382.297 300.922 377.819 296.445 372.297 296.445V296.445Z" fill="white"/>
<path d="M372.297 339.019C337.968 339.019 305.425 324.079 283.015 298.029C279.412 293.843 273.099 293.367 268.913 296.97C264.726 300.572 264.252 306.885 267.853 311.073C294.068 341.544 332.136 359.019 372.297 359.019C377.819 359.019 382.297 354.542 382.297 349.019C382.297 343.496 377.819 339.019 372.297 339.019V339.019Z" fill="white"/>
<path d="M252.234 355.805C285.292 385.332 327.931 401.593 372.296 401.593C377.818 401.593 382.296 397.116 382.296 391.593C382.296 386.07 377.818 381.593 372.296 381.593C332.852 381.593 294.944 367.137 265.556 340.889C261.437 337.21 255.116 337.567 251.437 341.685C247.758 345.805 248.115 352.126 252.234 355.805V355.805Z" fill="white"/>
<path d="M10 74C15.522 74 20 69.523 20 64V20H64C69.522 20 74 15.523 74 10C74 4.477 69.522 0 64 0H10C4.478 0 0 4.477 0 10V64C0 69.523 4.478 74 10 74Z" fill="white"/>
<path d="M394 0H340C334.478 0 330 4.477 330 10C330 15.523 334.478 20 340 20H384V64C384 69.523 388.478 74 394 74C399.522 74 404 69.523 404 64V10C404 4.477 399.522 0 394 0Z" fill="white"/>
<path d="M64 492H20V448C20 442.477 15.522 438 10 438C4.478 438 0 442.477 0 448V502C0 507.523 4.478 512 10 512H64C69.522 512 74 507.523 74 502C74 496.477 69.522 492 64 492Z" fill="white"/>
<path d="M394 438C388.478 438 384 442.477 384 448V492H340C334.478 492 330 496.477 330 502C330 507.523 334.478 512 340 512H394C399.522 512 404 507.523 404 502V448C404 442.477 399.522 438 394 438Z" fill="white"/>
<path d="M275.42 77.6001C278.06 77.6001 280.63 76.5301 282.49 74.6701C284.359 72.8101 285.42 70.2301 285.42 67.6001C285.42 64.9701 284.36 62.3901 282.49 60.5301C280.63 58.6701 278.05 57.6001 275.42 57.6001C272.79 57.6001 270.21 58.6701 268.35 60.5301C266.491 62.3901 265.42 64.9701 265.42 67.6001C265.42 70.2301 266.49 72.8101 268.35 74.6701C270.21 76.5301 272.79 77.6001 275.42 77.6001Z" fill="white"/>
</svg>
