<svg width="512" height="512" viewBox="0 0 512 512" fill="none" xmlns="http://www.w3.org/2000/svg">
<path d="M491.293 251.466C495.817 249.498 499.919 246.567 503.268 242.806C509.792 235.48 512.885 225.69 511.753 215.947L497.914 96.78C496.023 80.489 482.959 67.958 466.913 66.481L474.564 11.375C474.962 8.51 474.1 5.614 472.201 3.433C470.302 1.252 467.551 0 464.659 0H339.132C336.24 0 333.489 1.252 331.591 3.433C329.692 5.614 328.83 8.511 329.228 11.375L336.859 66.333H326.313C307.384 66.333 291.978 81.694 291.9 100.605L220.084 100.627C220.002 81.718 204.598 66.36 185.671 66.36H175.125L182.756 11.402C183.154 8.537 182.292 5.641 180.393 3.46C178.494 1.279 175.744 0.027 172.851 0.027H47.3235C44.4315 0.027 41.6815 1.279 39.7815 3.46C37.8825 5.641 37.0205 8.538 37.4185 11.402L45.0695 66.507C29.0235 67.985 15.9595 80.515 14.0685 96.806L0.229465 215.975C-0.902535 225.719 2.18947 235.509 8.71447 242.834C12.0525 246.582 16.1385 249.506 20.6435 251.474L0.102465 436.899C0.0624654 437.265 0.0414654 437.632 0.0414654 438V502C0.0414654 507.523 4.51847 512 10.0415 512H210.041C215.564 512 220.041 507.523 220.041 502V438C220.041 437.632 220.021 437.265 219.98 436.899L199.44 251.478C210.211 246.756 218.112 236.677 219.759 224.628L292.222 224.606C293.869 236.637 301.752 246.703 312.501 251.432L291.955 436.899C291.915 437.265 291.894 437.632 291.894 438V502C291.894 507.523 296.371 512 301.894 512H501.894C507.417 512 511.894 507.523 511.894 502V438C511.894 437.632 511.873 437.265 511.834 436.899L491.293 251.466ZM471.488 254.333L490.726 428H313.064L332.302 254.333H471.488ZM487.715 182.333H408.478C396.348 182.333 386.478 172.464 386.478 160.333C386.478 148.202 396.347 138.333 408.478 138.333H482.605L487.715 182.333ZM350.616 20H453.175L446.742 66.334H357.05L350.616 20ZM161.366 20.028L154.933 66.361H65.2415L58.8085 20.028H161.366ZM29.3775 138.361H103.504C115.634 138.361 125.504 148.23 125.504 160.361C125.504 172.492 115.635 182.361 103.504 182.361H24.2675L29.3775 138.361ZM20.0415 492V448.028H65.0415C70.5645 448.028 75.0415 443.551 75.0415 438.028C75.0415 432.505 70.5645 428.028 65.0415 428.028H21.2075L40.4465 254.361H179.637L198.876 428.028H155.041C149.518 428.028 145.041 432.505 145.041 438.028C145.041 443.551 149.518 448.028 155.041 448.028H200.041V492H20.0415ZM200.087 219.945C200.087 227.121 194.811 233.072 187.938 234.165L32.0405 234.151C28.8095 233.624 25.8855 232.043 23.6505 229.533C20.8775 226.419 19.6155 222.424 20.0965 218.282L21.9455 202.362H103.504C126.663 202.362 145.503 183.521 145.503 160.362C145.503 137.203 126.662 118.362 103.504 118.362H31.6995L33.9345 99.115C34.7785 91.844 40.9355 86.362 48.2545 86.362H185.669C193.618 86.362 200.086 92.829 200.086 100.779V219.945H200.087ZM220.087 120.628L291.896 120.606V204.606L220.087 204.628V120.628ZM311.895 100.75C311.895 92.801 318.362 86.334 326.312 86.334H463.727C471.046 86.334 477.203 91.817 478.047 99.087L480.282 118.334H408.478C385.319 118.334 366.478 137.175 366.478 160.334C366.478 183.493 385.319 202.334 408.478 202.334H490.037L491.886 218.254C492.367 222.396 491.105 226.391 488.332 229.505C486.036 232.084 483.013 233.685 479.676 234.165L324.134 234.151C317.217 233.096 311.895 227.124 311.895 219.917V100.75ZM311.895 492V448H491.895V492H311.895Z" fill="white"/>
<path d="M110.042 428.034C107.412 428.034 104.832 429.094 102.972 430.954C101.112 432.814 100.042 435.394 100.042 438.034C100.042 440.664 101.112 443.244 102.972 445.104C104.832 446.964 107.412 448.034 110.042 448.034C112.672 448.034 115.252 446.964 117.112 445.104C118.972 443.234 120.042 440.664 120.042 438.034C120.042 435.394 118.972 432.824 117.112 430.954C115.252 429.094 112.672 428.034 110.042 428.034V428.034Z" fill="white"/>
</svg>
